<svg width="396" height="247" viewBox="0 0 396 247" fill="none" xmlns="http://www.w3.org/2000/svg">
<path d="M229.038 50.2543L226.46 53.8721L225.741 54.3921L223.163 49.8449L225.741 46.7471L229.049 50.2543H229.038Z" fill="#FAE5EC" stroke="black" stroke-width="0.19"/>
<path d="M155.896 50.6639L153.318 54.2817L152.599 54.8017L150.021 50.2546L152.599 47.1567L155.907 50.6639H155.896Z" fill="#FAE5EC" stroke="black" stroke-width="0.19"/>
<path d="M135.129 85.2046C139.235 85.2046 142.564 81.2469 142.564 76.3648C142.564 71.4826 139.235 67.5249 135.129 67.5249C131.023 67.5249 127.695 71.4826 127.695 76.3648C127.695 81.2469 131.023 85.2046 135.129 85.2046Z" fill="#FF165D"/>
<path d="M116.233 144.672L113.655 148.29L112.936 148.81L110.358 144.263L112.936 141.165L116.244 144.672H116.233Z" fill="#FAE5EC" stroke="black" stroke-width="0.19"/>
<path d="M274.996 91.4334C273.713 90.6258 272.64 91.2785 271.622 92.064C270.062 93.2921 268.425 94.2325 266.334 93.9559C265.161 93.801 264.397 94.4648 263.999 95.5823C263.822 96.0801 263.723 96.6112 263.501 97.0869C263.103 97.9167 262.649 98.7244 262.229 99.5431C261.62 99.0341 261.034 98.5142 260.414 98.0384C258.622 96.6333 256.918 97.0537 255.889 99.1558C255.657 99.6316 255.513 100.141 255.369 100.649C254.872 102.431 253.887 103.88 252.648 105.186C250.479 107.487 248.045 109.379 245.246 110.773C242.425 112.178 239.449 112.786 236.329 112.587C233.696 112.421 231.616 111.248 230.177 108.947C229.414 107.708 228.717 106.403 228.031 105.097C224.966 99.2997 220.961 94.4538 215.109 91.5219C214.058 90.9909 213.593 90.2275 213.35 89.1322C212.409 84.7952 211.413 80.4693 210.473 76.1213C210.141 74.6056 210.208 74.6388 211.646 74.2405C214.213 73.5435 216.801 72.8907 219.291 71.9945C220.408 71.5963 221.459 70.7886 222.333 69.9367C223.34 68.952 223.141 67.7793 222.012 66.9938C221.426 66.5844 220.74 66.3078 220.087 66.0091C218.782 65.4006 217.432 64.9027 216.171 64.2168C211.734 61.7938 208.437 58.165 207.01 53.1863C206.025 49.7566 205.671 46.1166 205.229 42.5431C204.72 38.4384 206.037 36.1261 209.732 34.5551C211.126 33.9687 212.675 33.6147 214.179 33.5372C216.104 33.4377 218.063 33.6147 219.988 33.8913C224.303 34.5108 227.81 33.0947 230.709 29.7756C233.873 26.1467 235.687 21.7987 237.059 17.2073C237.203 16.7094 237.314 16.1341 237.214 15.6473C237.114 15.2047 236.76 14.6294 236.395 14.4967C236.008 14.3528 235.344 14.5299 235.023 14.8286C234.592 15.2379 234.371 15.8796 234.072 16.4439C232.103 20.2498 229.049 22.1527 224.856 22.0863C221.88 22.0421 218.915 21.9425 215.95 22.0421C212.077 22.1749 208.172 22.2634 204.333 22.7391C192.849 24.1442 184.794 30.2845 180.811 41.7244C179.882 44.4128 179.041 47.1455 178.3 49.9004C177.669 52.1906 176.596 54.1931 175.169 56.0407C172.436 59.5811 169.062 62.2696 165.09 64.1615C164.172 64.604 163.198 64.9691 162.28 65.4227C161.007 66.0534 159.348 66.507 159.293 68.2661C159.248 70.0805 160.753 70.9546 162.114 71.7069C163.098 72.249 164.15 72.7247 165.223 73.0456C166.783 73.5324 168.387 73.8754 169.98 74.2626C171.363 74.5834 171.485 74.7051 171.12 76.1877C170.124 80.2923 169.051 84.3859 168.077 88.5015C167.778 89.7517 167.126 90.4377 165.975 90.9577C160.034 93.6461 155.719 98.1933 152.522 103.946C151.448 105.871 150.508 107.885 149.49 109.843C149.003 110.773 148.55 111.735 147.963 112.598C146.702 114.501 144.921 115.342 142.686 115.176C141.226 115.065 140.993 114.833 140.905 113.306C140.827 112.156 140.86 110.983 140.739 109.821C140.573 108.283 140.263 106.834 141.148 105.285C141.812 104.112 141.226 102.895 139.688 102.32C138.15 101.756 138.028 100.749 138.05 99.3992C138.084 95.6819 138.095 91.9755 138.061 88.2581C138.05 87.2181 137.995 86.1339 137.752 85.1161C137.386 83.6446 136.103 82.682 134.864 82.7152C133.525 82.7484 132.297 83.9986 132.076 85.636C131.987 86.3662 132.021 87.1186 132.021 87.8598C132.021 91.1568 132.043 94.4427 132.021 97.7286C132.01 100.03 131.998 100.052 129.863 100.561C127.086 101.203 124.851 102.652 123.955 105.529C121.554 113.273 122.417 120.487 129.177 124.967C130.472 125.83 130.87 126.815 130.848 128.342C130.737 135.445 130.693 142.548 130.715 149.661C130.726 153.257 130.627 156.908 131.102 160.46C131.744 165.217 131.987 169.974 132.021 174.754H134.421V158.335H134.41V123.407C134.41 122.777 134.344 122.124 134.444 121.504C134.51 121.062 134.787 120.653 134.975 120.221C135.196 120.619 135.506 120.984 135.627 121.416C135.738 121.803 135.65 122.257 135.65 122.677C135.65 140.036 135.661 157.395 135.627 174.754H144.025C145.496 173.537 146.89 172.209 148.295 170.915C148.826 170.417 149.258 169.808 149.8 169.333C150.065 169.089 150.475 169.001 150.829 168.846C150.873 169.244 150.962 169.654 150.962 170.052C150.962 170.472 150.862 170.893 150.818 171.313C150.707 172.464 150.585 173.603 150.475 174.754H153.152C153.506 171.158 153.849 167.562 154.203 163.967C154.27 163.347 154.38 162.683 154.657 162.141C157.932 155.592 159.071 148.489 159.558 141.275C160.122 133.132 160.421 124.967 160.819 116.813C160.875 115.818 160.83 114.811 160.41 113.782C160.233 115.01 159.978 116.238 159.89 117.477C159.392 124.127 159.038 130.809 158.419 137.447C157.998 141.983 157.39 146.497 156.56 150.967C155.808 155.049 154.126 158.822 151.836 162.274C151.57 162.672 151.227 162.993 150.619 163.679V163.712H150.608C150.608 163.712 150.619 163.69 150.619 163.679C151.57 157.826 152.367 152.427 150.585 147.006C150.585 147.88 150.563 148.743 150.585 149.617C150.652 153.545 150.718 157.483 149.833 161.323C149.402 163.17 148.804 164.985 148.052 166.711C147.631 167.706 146.768 168.492 145.717 169.134C146.105 167.297 146.58 165.471 146.846 163.624C147.974 155.935 147.908 148.201 147.687 140.457C147.488 133.32 146.768 126.284 144.423 119.513C144.025 118.362 144.434 117.831 145.574 118.219C147.1 118.727 148.583 119.458 150.01 120.254C150.984 120.796 151.814 121.637 152.743 122.301C152.931 122.434 153.263 122.334 153.528 122.356C153.506 122.058 153.606 121.648 153.451 121.482C152.156 120 150.873 118.495 149.457 117.156C148.804 116.537 148.605 116.227 149.125 115.386C150.608 112.974 152.057 110.54 153.34 108.029C155.077 104.632 156.936 101.335 159.669 98.7133C161.007 97.4188 162.468 96.235 164.006 95.1951C166.628 93.4027 166.683 93.4691 166.971 96.7661C167.314 100.506 168.962 103.637 171.252 106.425C172.912 108.449 174.737 110.308 176.452 112.277C178.09 114.169 179.738 116.061 181.276 118.042C185.978 124.082 187.881 130.986 187.638 138.753C187.372 147.227 187.516 155.713 187.516 164.199V174.754H189.828C189.817 164 189.795 153.246 189.762 142.492C189.729 132.966 192.65 124.824 198.912 117.953C201.578 115.032 204.333 112.167 207.209 109.467C211.082 105.827 213.659 101.59 214.08 96.0691C214.213 94.3985 214.545 94.2878 215.994 95.184C219.778 97.5295 222.544 100.893 224.801 104.754C225.907 106.657 226.914 108.626 228.031 110.529C228.695 111.669 229.469 112.731 230.189 113.837C229.259 114.645 228.297 115.431 227.4 116.282C226.792 116.847 226.25 117.488 225.752 118.163C225.542 118.44 225.542 118.893 225.453 119.259C225.807 119.214 226.239 119.281 226.493 119.093C227.832 118.13 229.093 117.024 230.454 116.094C231.195 115.574 232.08 115.231 232.943 114.944C233.231 114.844 233.651 115.132 234.005 115.253C233.884 115.53 233.817 115.851 233.629 116.072C232.423 117.643 231.118 119.137 229.967 120.763C229.149 121.936 228.474 123.241 228.529 124.724C230.709 122.19 232.91 119.723 234.99 117.156C236.428 115.386 238.398 115.397 240.301 115.209C241.153 115.132 240.876 115.906 240.688 116.338C239.084 120.066 238.398 124.027 237.933 128.032C237.601 130.765 237.38 133.52 237.28 136.274C236.993 145.07 236.65 153.866 237.634 162.65C237.911 165.162 238.342 167.651 238.752 170.494C237.07 169.288 236.406 167.706 235.798 166.102C234.149 161.699 233.629 157.074 233.441 152.394C233.386 151.078 233.364 149.761 233.12 148.456C232.224 154.054 232.545 159.597 233.762 165.361C231.151 162.606 230.067 158.49 228.418 146.918C228.396 148.378 228.297 149.839 228.363 151.299C228.44 152.992 228.617 154.673 228.817 156.355C229.005 157.926 229.259 159.486 229.558 161.455C226.947 159.243 225.232 156.775 224.269 153.888C223.207 150.701 222.256 147.416 221.769 144.085C220.928 138.332 220.43 132.524 219.877 126.715C219.357 121.25 218.959 115.762 218.494 110.286C218.384 110.253 218.273 110.22 218.162 110.197C218.162 112.831 218.03 115.464 218.184 118.086C218.66 125.919 219.213 133.741 219.833 141.563C220.032 144.085 220.552 146.586 220.906 149.097C221.094 150.347 221.271 151.609 221.371 152.881C221.946 160.172 222.51 167.463 223.064 174.754H225.652C225.63 174.51 225.619 174.256 225.597 174.013C225.298 170.096 225.022 166.18 224.767 162.274C224.756 162.02 224.955 161.743 225.066 161.489C225.321 161.61 225.63 161.677 225.818 161.876C228.551 164.741 231.195 167.695 234.017 170.461C235.61 172.021 237.336 173.459 239.128 174.754H245.191C245.357 174.577 245.534 174.367 245.689 174.145C246.463 173.061 247.005 171.745 247.381 170.45C247.791 169.045 248.023 167.54 248.101 166.08C248.355 161.732 248.598 157.395 248.643 153.047C248.731 145.203 248.654 137.348 248.709 129.503C248.72 128.508 248.775 127.147 249.362 126.561C252.449 123.496 255.115 119.978 258.866 117.599C263.424 114.722 267.451 111.049 270.881 106.812C272.629 104.643 274.067 102.143 275.317 99.6205C276.036 98.1712 276.191 96.3789 276.413 94.7193C276.578 93.4138 276.18 92.1747 274.996 91.4334ZM134.455 87.893C134.477 87.2403 134.775 86.5986 134.941 85.9458C135.915 86.2335 135.616 87.0965 135.638 87.7492C135.683 89.6522 135.65 91.5551 135.65 93.447H135.627C135.627 95.4606 135.661 97.4631 135.605 99.4656C135.583 99.9082 135.273 100.34 135.096 100.771C134.886 100.384 134.51 99.9967 134.499 99.5984C134.432 97.4963 134.455 95.3831 134.444 93.27C134.444 91.4777 134.388 89.6853 134.455 87.893ZM132.286 114.944C133.68 115.22 135.107 115.386 136.501 115.718C136.889 115.807 137.176 116.338 137.508 116.67C137.099 116.924 136.701 117.367 136.269 117.411C135.163 117.533 134.012 117.378 132.906 117.522C131.81 117.676 130.737 118.019 129.675 118.351C129.465 118.418 129.233 118.838 129.233 119.082C129.233 119.236 129.642 119.424 129.896 119.535C130.073 119.613 130.295 119.579 130.494 119.624C131.899 119.933 132.507 121.161 131.888 122.567C131.799 122.755 131.113 122.887 130.936 122.744C129.675 121.704 128.303 120.73 127.296 119.447C125.836 117.588 125.283 115.298 125.405 112.897C125.482 111.215 125.626 109.511 125.947 107.863C126.511 104.975 128.17 103.46 130.959 103.106C132.839 102.862 134.632 103.283 136.247 104.278C136.667 104.544 136.833 105.263 137.11 105.772C136.645 105.883 136.181 106.093 135.716 106.082C134.101 106.049 132.496 105.905 130.881 105.894C130.427 105.883 129.974 106.192 129.033 106.535C131.169 106.845 132.773 107.022 134.366 107.343C135.251 107.52 136.136 107.874 136.922 108.328C137.254 108.527 137.575 109.257 137.475 109.611C137.386 109.954 136.723 110.341 136.324 110.341C135.207 110.341 134.101 110.12 132.983 110.031C132.474 109.987 131.954 110.009 131.456 110.087C131.257 110.12 131.091 110.419 130.925 110.596C131.08 110.706 131.224 110.894 131.401 110.917C132.408 111.071 133.437 111.105 134.433 111.315C135.428 111.514 136.402 111.824 137.353 112.178C137.564 112.255 137.818 112.753 137.752 112.963C137.641 113.306 137.309 113.793 137.055 113.815C136.048 113.893 135.019 113.804 134.001 113.793C132.828 113.782 131.656 113.793 130.405 114.391C131.036 114.579 131.644 114.811 132.286 114.944ZM138.106 120.896C138.161 120.121 139.566 118.539 140.02 118.816C140.506 119.115 140.894 119.889 140.993 120.52C141.38 123.009 141.646 125.521 141.978 128.187C138.415 126.715 138.084 126.262 138.072 123.12C138.072 122.378 138.039 121.637 138.106 120.896ZM144.279 159.088C144.379 163.369 143.549 167.496 141.945 171.457C141.757 171.944 141.558 172.464 141.226 172.84C140.838 173.282 140.13 173.99 139.876 173.869C139.212 173.548 138.659 172.895 138.205 172.276C137.995 171.988 138.095 171.446 138.106 171.025C138.183 162.661 138.272 154.308 138.371 145.944C138.371 145.535 138.449 145.136 138.504 144.727C138.692 144.705 138.88 144.672 139.079 144.65C139.843 146.608 140.595 148.555 141.369 150.491C142.122 152.35 142.94 154.164 143.626 156.034C143.969 157.008 144.257 158.059 144.279 159.088ZM210.573 68.4874C210.871 68.5095 211.181 68.5316 211.469 68.6423C212.819 69.1733 214.522 68.6423 215.573 70.0805C214.157 70.5784 212.752 71.0984 211.336 71.5852C211.048 71.6848 210.739 71.6626 210.484 71.6958C209.577 71.6737 209.057 70.8329 209.046 69.3393C209.046 68.1112 209.898 68.4542 210.573 68.4874ZM182.073 46.2715C182.913 43.7822 183.788 41.2818 184.894 38.9031C187.87 32.5083 192.827 28.5254 199.354 26.5561C203.713 25.2395 208.205 24.9629 212.708 24.7638C214.644 24.6752 216.591 24.7306 218.527 24.7748C222.798 24.8523 227.069 25.2506 231.339 23.4804C229.292 29.0011 225.52 31.5347 220.53 31.1586C217.886 30.9594 215.219 30.8709 212.564 30.9483C209.92 31.0258 207.641 32.2539 205.638 34.013C203.669 35.75 202.496 37.9738 202.64 40.6844C202.784 43.3286 202.983 45.9949 203.481 48.5728C203.901 50.7523 203.359 51.0621 201.523 50.4536C196.721 48.8715 191.787 48.0417 186.73 48.2077C185.812 48.2409 184.894 48.2851 183.976 48.4068C181.331 48.7387 181.254 48.7277 182.073 46.2715ZM183.212 50.0885C184.916 49.8008 186.642 49.6459 187.527 49.5353C193.092 49.7013 197.695 50.5863 202.12 52.3123C202.762 52.5557 203.481 52.9429 203.835 53.485C204.178 54.0161 204.1 54.8459 204.211 55.5429C203.658 55.4765 203.06 55.5207 202.54 55.3216C195.747 52.7106 188.821 52.3455 181.763 53.8944C181.365 53.9829 180.955 54.171 180.568 54.1267C180.314 54.1046 179.871 53.7174 179.893 53.5514C180.192 51.3497 181.022 50.4536 183.201 50.0885H183.212ZM181.774 56.2067C191.576 53.9608 200.582 55.6093 208.78 61.6721C209.013 61.8492 209.168 62.1258 209.621 62.6679C206.977 63.0772 204.654 62.3581 202.308 62.2806C199.863 62.2032 197.418 62.1036 194.973 62.0704C192.428 62.0372 189.884 62.0372 187.328 62.0704C184.883 62.1036 182.438 62.1479 179.993 62.2585C177.581 62.3802 175.169 62.6015 172.171 62.8228C175.257 59.7028 177.857 57.1028 181.774 56.2067ZM201.058 64.9581C202.983 65.0244 203.049 65.1461 203.392 67.1487C203.791 69.5384 204.111 71.9503 204.377 74.3622C204.488 75.2915 204.454 76.2762 204.288 77.2055C203.912 79.3408 202.939 79.8166 201.025 78.7766C199.675 78.0464 198.425 77.1281 197.097 76.3315C195.847 75.5902 194.575 74.9928 193.037 75.5128C192.495 75.6898 191.775 75.6898 191.233 75.4907C189.043 74.6941 187.262 75.6013 185.513 76.774C184.396 77.5153 183.367 78.4115 182.205 79.0421C180.502 79.9715 179.473 79.3629 179.296 77.3604C178.942 73.5213 179.605 69.7707 180.258 66.0312C180.446 64.9691 181.199 64.8032 182.095 64.8142C185.148 64.8142 188.213 64.8142 191.267 64.8142V64.9249C194.53 64.9249 197.794 64.8474 201.058 64.9581ZM170.976 71.6737C168.818 71.1095 166.683 70.4567 164.559 69.7597C164.26 69.6601 164.083 69.1622 163.851 68.8414C164.194 68.6644 164.526 68.3657 164.88 68.3103C166.296 68.1112 167.723 67.9895 169.349 67.8235C169.659 67.8235 170.179 67.735 170.666 67.8457C171.407 68.0006 172.657 68.1444 172.746 68.5316C172.945 69.3725 172.635 70.3903 172.314 71.2533C172.215 71.5409 171.385 71.7843 170.976 71.6737ZM207.995 104.577C207.619 105.031 207.099 105.374 206.28 106.093C207.696 98.8903 208.681 92.1304 205.362 85.6029C205.428 86.1228 205.472 86.6539 205.572 87.1628C206.955 93.7568 206.534 100.229 204.266 106.557C203.857 107.686 203.636 109.058 202.164 109.711C202.972 104.71 203.824 99.8086 202.098 94.8742C202.098 95.7261 202.065 96.578 202.098 97.4299C202.264 101.712 201.6 105.86 200.538 109.987C199.752 113.03 197.883 115.11 195.46 117.367C196.234 110.728 198.624 104.621 197.407 98.1601C196.765 105.462 194.718 112.454 193.004 119.524C192.727 120.653 192.793 122.036 191.444 122.611C191.278 121.504 190.957 120.387 190.957 119.281C190.968 112.189 191.034 105.097 191.078 97.7286C190.824 98.5695 190.525 99.2444 190.404 99.9414C189.22 106.546 189.021 113.218 189.231 119.911C189.253 120.741 189.187 121.582 189.153 122.423C189.153 122.456 189.021 122.489 188.7 122.655C186.299 114.291 184.418 105.905 184.673 96.7108C183.721 98.3039 183.81 99.6758 183.799 101.015C183.799 106.657 184.529 112.211 185.702 117.721C185.79 118.119 185.867 118.517 185.757 119.026C183.467 115.95 180.59 113.428 180.358 108.969C180.125 104.3 179.738 99.6758 180.424 95.018C180.491 94.5091 180.435 93.9891 180.435 92.8938C179.097 96.1797 179.052 99.1337 178.897 102.032C178.776 104.245 179.008 106.48 179.052 108.704C179.052 109.191 178.931 109.677 178.853 110.164C178.433 109.766 177.758 109.423 177.647 108.947C177.094 106.701 176.43 104.422 176.308 102.121C176.12 98.669 176.353 95.2061 176.397 91.7432C175.313 94.1883 174.981 96.7661 174.959 99.3992C174.948 101.302 175.036 103.205 175.058 105.119C175.058 105.285 174.937 105.529 174.793 105.606C174.66 105.672 174.372 105.639 174.262 105.529C171.142 102.198 168.973 98.4367 169.814 93.5798C170.445 89.9398 171.219 86.3109 172.137 82.7263C173.443 77.6038 174.948 72.5367 176.364 67.4584C176.508 66.9495 176.607 66.3742 176.906 65.987C177.171 65.6329 177.702 65.5002 178.112 65.2678C178.311 65.6772 178.731 66.1087 178.698 66.4848C178.455 68.9078 178.023 71.3086 177.824 73.7315C177.702 75.3026 177.68 76.94 177.968 78.4668C178.433 80.9561 180.092 81.7306 182.305 80.6353C183.411 80.0931 184.418 79.3408 185.414 78.5996C187.14 77.3272 188.954 76.9843 191.123 76.9068C194.431 76.7962 197.075 77.9689 199.642 79.7834C199.985 80.0157 200.35 80.2259 200.715 80.4029C203.204 81.5757 205.041 80.7791 205.483 77.98C205.782 76.1434 205.605 74.1852 205.439 72.2933C205.273 70.2133 204.875 68.1444 204.963 65.987C205.505 67.9674 206.136 69.9367 206.59 71.9503C208.117 78.6438 209.676 85.3373 211.015 92.0751C211.922 96.6555 211.037 100.937 207.995 104.577ZM245.047 168.569C244.914 169.786 244.35 170.981 243.852 172.121C243.697 172.475 243.1 172.751 242.679 172.807C242.48 172.829 242.082 172.253 242.005 171.888C241.374 168.691 240.555 165.505 240.256 162.274C239.947 158.922 240.046 155.525 240.19 152.162C240.334 148.765 242.502 146.398 244.56 144.052C245.025 143.532 245.534 143.897 245.567 144.583C245.7 147.736 245.799 150.901 245.91 154.065C245.921 154.585 245.91 155.116 245.91 155.647C245.987 155.658 246.065 155.658 246.153 155.669C245.799 159.973 245.512 164.277 245.047 168.569ZM249.24 122.744C247.647 124.37 245.976 125.919 244.306 127.457C244.118 127.634 243.675 127.744 243.498 127.634C243.321 127.523 243.31 127.103 243.277 126.804C243.233 126.494 243.266 126.173 243.266 125.377C243.587 123.131 243.941 120.42 244.361 117.721C244.494 116.891 244.715 116.05 245.069 115.309C245.368 114.689 245.921 113.738 246.341 113.749C247.448 113.782 246.85 114.866 246.884 115.475C247.05 117.743 247.437 119.845 249.229 121.438C249.45 121.637 249.461 122.522 249.24 122.744ZM268.9 105.219C268.27 105.772 267.705 106.403 267.23 107.111C267.152 107.21 267.075 107.31 266.986 107.398C263.933 110.042 260.857 112.676 257.759 115.253C255.923 116.78 253.986 118.163 252.15 119.668C250.778 120.774 250.192 120.73 249.251 119.225C247.381 116.216 247.968 112.62 250.69 110.441C251.198 110.031 251.718 109.611 252.205 109.157C254.573 106.934 256.963 104.721 257.87 101.335C257.969 100.959 258.6 100.417 258.877 100.483C259.253 100.572 259.695 101.114 259.806 101.546C260.193 102.973 259.695 104.245 258.932 105.44C258.899 105.484 258.877 105.551 258.866 105.628C258.81 106.004 259.175 106.347 259.529 106.226C259.585 106.203 259.629 106.181 259.662 106.137C260.735 105.031 261.797 103.902 262.793 102.718C263.313 102.088 263.656 101.291 264.154 100.627C264.254 100.472 264.663 100.495 264.917 100.561C265.006 100.583 265.15 100.959 265.083 101.092C264.475 102.42 263.911 103.78 263.169 105.031C262.782 105.694 262.262 106.281 261.808 106.934C261.643 107.155 261.897 107.465 262.14 107.332C264.641 105.993 266.168 103.836 266.754 100.849C266.953 99.8197 267.119 98.7797 267.34 97.7508C267.374 97.5848 267.639 97.3525 267.761 97.3746C268.004 97.4188 268.358 97.5627 268.458 97.7729C269.243 99.4656 268.701 101.114 268.071 102.663C267.628 103.725 266.876 104.632 266.3 105.628C266.112 105.971 266.4 106.369 266.754 106.27C266.876 106.237 266.997 106.203 267.119 106.17C267.495 106.082 267.816 105.805 267.982 105.44C268.137 105.086 268.303 104.732 268.513 104.411C269.763 102.519 270.482 100.483 270.283 98.1491C270.239 97.618 270.206 97.0759 270.283 96.5669C270.328 96.3235 270.671 95.9363 270.848 95.9474C271.19 95.9806 271.699 96.1687 271.81 96.4342C272.031 96.9984 272.164 97.6622 272.142 98.2708C272.031 101.169 270.892 103.46 268.878 105.219H268.9Z" fill="black"/>
<path d="M135.008 66.8389C140.274 66.8942 144.268 71.1095 144.257 76.5971C144.257 82.0847 139.898 86.7203 134.82 86.665C129.598 86.6097 125.482 82.0404 125.615 76.4422C125.747 70.8993 129.775 66.7836 135.008 66.8389ZM130.328 81.8081C135.417 84.6293 135.528 84.6293 139.555 81.5979C141.934 79.0532 142.42 76.243 141.004 73.289C139.699 70.5563 136.922 69.0406 133.89 69.461C131.191 69.8372 129.398 71.5189 128.524 74.0635C127.529 76.9622 127.894 79.6838 130.328 81.797V81.8081Z" fill="black"/>
<path d="M236.993 90.2054L235.09 92.8386L234.559 93.2148L232.656 89.8957L234.559 87.6387L236.993 90.2054Z" fill="#FAE5EC" stroke="black" stroke-width="0.19"/>
<path d="M265.692 183.295L262.992 186.935L262.24 187.455L259.541 182.886L262.24 179.766L265.692 183.295Z" fill="#FAE5EC" stroke="black" stroke-width="0.19"/>
<path d="M267.838 183.992C267.528 184.214 267.307 184.435 267.042 184.535C264.74 185.431 263.369 187.057 263.092 189.646C263.059 189.934 262.616 190.188 262.362 190.454C262.129 190.133 261.742 189.834 261.698 189.491C261.41 186.869 259.95 185.342 257.615 184.546C257.35 184.457 257.162 184.158 256.929 183.959C257.195 183.694 257.416 183.24 257.715 183.174C260.326 182.609 261.344 180.762 261.643 178.217C261.676 177.918 262.107 177.675 262.351 177.398C262.528 177.62 262.738 177.83 262.882 178.062C262.981 178.228 263.003 178.461 263.037 178.671C263.479 181.072 264.729 182.665 267.108 183.207C267.329 183.262 267.495 183.605 267.838 184.003V183.992ZM262.472 186.061C262.705 185.829 262.948 185.63 263.147 185.397C264.608 183.638 264.453 183.34 262.384 181.912C260.481 183.284 260.315 183.838 261.764 185.453C261.963 185.674 262.229 185.84 262.483 186.05L262.472 186.061Z" fill="black"/>
<path d="M238.896 90.1836C238.652 90.3496 238.475 90.5266 238.265 90.6151C236.451 91.3232 235.366 92.6066 235.145 94.6423C235.123 94.8746 234.769 95.0627 234.57 95.2729C234.393 95.0185 234.083 94.7861 234.05 94.5095C233.817 92.4406 232.667 91.2347 230.83 90.6041C230.62 90.5377 230.465 90.2943 230.288 90.1394C230.498 89.9292 230.675 89.5641 230.908 89.5198C232.965 89.0773 233.773 87.6169 234.005 85.6144C234.028 85.382 234.371 85.1829 234.57 84.9727C234.714 85.1497 234.868 85.3046 234.99 85.5037C235.068 85.6365 235.09 85.8135 235.112 85.9795C235.455 87.8713 236.439 89.1326 238.331 89.553C238.508 89.5862 238.63 89.8739 238.907 90.1836H238.896ZM234.669 91.8211C234.857 91.644 235.045 91.4781 235.2 91.3011C236.362 89.9071 236.229 89.6858 234.592 88.5573C233.098 89.6415 232.965 90.0841 234.105 91.3564C234.271 91.5334 234.47 91.6662 234.669 91.8321V91.8211Z" fill="black"/>
<path d="M231.35 50.7968C231.04 51.007 230.819 51.2283 230.565 51.3278C228.308 52.2019 226.958 53.8061 226.681 56.3507C226.648 56.6384 226.206 56.8818 225.962 57.1473C225.741 56.8375 225.354 56.5388 225.309 56.2069C225.022 53.6291 223.583 52.1244 221.293 51.3389C221.039 51.2504 220.84 50.9627 220.618 50.7636C220.873 50.4981 221.094 50.0555 221.393 49.9891C223.96 49.436 224.966 47.6104 225.254 45.1211C225.287 44.8335 225.708 44.579 225.951 44.3135C226.128 44.5347 226.327 44.7339 226.471 44.9773C226.571 45.1433 226.593 45.3645 226.626 45.5747C227.057 47.9313 228.286 49.5023 230.631 50.0334C230.852 50.0776 231.007 50.4317 231.35 50.8189V50.7968ZM226.073 52.8325C226.305 52.6112 226.537 52.4121 226.726 52.1797C228.164 50.4427 228.009 50.1551 225.973 48.75C224.103 50.0998 223.949 50.653 225.365 52.2351C225.564 52.4563 225.818 52.6223 226.073 52.8325Z" fill="black"/>
<path d="M118.501 144.76C118.191 144.97 117.981 145.192 117.715 145.291C115.458 146.165 114.109 147.769 113.832 150.314C113.799 150.602 113.356 150.845 113.113 151.111C112.892 150.801 112.504 150.502 112.46 150.17C112.172 147.592 110.734 146.088 108.444 145.302C108.189 145.214 107.99 144.926 107.769 144.727C108.024 144.461 108.245 144.019 108.543 143.953C111.11 143.399 112.117 141.574 112.405 139.085C112.438 138.797 112.858 138.542 113.102 138.277C113.279 138.498 113.478 138.697 113.622 138.941C113.721 139.107 113.743 139.328 113.777 139.538C114.208 141.895 115.436 143.466 117.782 143.997C118.003 144.041 118.158 144.395 118.501 144.782V144.76ZM113.223 146.796C113.456 146.575 113.688 146.375 113.876 146.143C115.314 144.406 115.16 144.118 113.124 142.713C111.254 144.063 111.099 144.605 112.515 146.198C112.715 146.42 112.969 146.586 113.223 146.796Z" fill="black"/>
<path d="M158.341 50.7964C158.031 51.0177 157.81 51.239 157.534 51.3385C155.232 52.2347 153.86 53.8611 153.584 56.45C153.551 56.7376 153.108 56.9921 152.854 57.2576C152.632 56.9368 152.234 56.638 152.19 56.2951C151.902 53.673 150.442 52.1462 148.107 51.3385C147.842 51.25 147.654 50.9513 147.421 50.7522C147.687 50.4866 147.908 50.033 148.207 49.9666C150.818 49.4024 151.836 47.5548 152.135 45.0101C152.168 44.7114 152.599 44.4569 152.843 44.1914C153.02 44.4127 153.23 44.6229 153.374 44.8552C153.473 45.0322 153.495 45.2535 153.529 45.4637C153.971 47.8645 155.221 49.4577 157.6 49.9998C157.821 50.0551 157.987 50.4092 158.33 50.7964H158.341ZM152.975 52.8764C153.208 52.644 153.451 52.4449 153.639 52.2126C155.1 50.4534 154.945 50.1547 152.876 48.7275C150.973 50.0994 150.818 50.6526 152.256 52.2679C152.455 52.4892 152.721 52.6551 152.975 52.8653V52.8764Z" fill="black"/>
<path d="M130.516 82.8706C130.394 82.8042 130.306 82.6936 130.261 82.5719C129.941 81.7642 129.542 80.9676 129.365 80.1268C129.166 79.12 129.177 78.0579 129.177 77.0179C129.177 76.9405 129.221 76.8519 129.288 76.7745C129.542 76.4868 130.018 76.4868 130.195 76.8409C130.206 76.863 130.217 76.8962 130.228 76.9183C130.328 77.3166 130.261 77.7592 130.328 78.1796C130.826 81.1668 132.662 82.8706 135.251 82.7489C137.751 82.6272 139.522 80.6136 139.743 77.7038C139.743 77.6485 139.743 77.5821 139.765 77.5268C139.842 76.9073 140.672 76.8077 140.86 77.4051C140.905 77.5379 140.927 77.6706 140.905 77.7923C140.617 79.3523 140.086 80.857 139.632 82.3838C139.599 82.5055 139.522 82.6161 139.422 82.6825C135.594 85.559 135.384 85.559 130.527 82.8816L130.516 82.8706Z" fill="black"/>
<path d="M201.135 85.3598C199.598 84.8177 197.971 84.2535 196.345 83.6671C195.958 83.5233 195.604 83.3131 195.238 83.136C193.369 82.262 192.406 82.8926 192.362 85.0169C192.351 85.5369 192.34 86.079 192.24 86.5879C192.196 86.787 191.908 86.9751 191.687 87.0526C191.61 87.0858 191.311 86.8202 191.3 86.6543C191.145 85.6143 191.045 84.5633 190.924 83.5122C190.813 82.5054 190.205 82.2841 189.408 82.6492C188.29 83.1582 187.239 83.7999 186.122 84.3309C185.381 84.6739 184.617 85.0058 183.821 85.1607C182.936 85.3377 181.995 86.1454 181.099 85.1386C181.807 84.8177 182.548 84.5301 183.234 84.165C184.772 83.3573 186.31 82.5275 187.826 81.6535C190.326 80.2042 192.827 80.1488 195.438 81.3769C197.473 82.3395 199.564 83.1692 201.611 84.0986C201.932 84.2424 202.142 84.6186 202.408 84.8952C202.054 85.0279 201.7 85.1607 201.158 85.3598H201.135Z" fill="black"/>
<path d="M175.722 85.7803C175.081 88.5019 174.45 91.2236 173.775 93.9342C173.72 94.1555 173.41 94.2993 173.222 94.4874C173.078 94.255 172.779 94.0116 172.801 93.7904C173.001 90.8585 173.554 88.0373 175.733 85.7913L175.722 85.7803Z" fill="black"/>
<path d="M186.388 68.6532C186.089 68.6532 185.779 68.6532 185.48 68.6532C184.706 68.6311 183.931 68.5979 183.157 68.5758C183.389 67.1707 184.617 67.3367 185.491 67.1375C186.664 66.872 187.903 66.7724 189.098 66.8277C189.519 66.8499 189.895 67.5358 190.304 67.923C189.917 68.1664 189.552 68.5758 189.142 68.6201C188.235 68.7307 187.317 68.6532 186.399 68.6532H186.388Z" fill="black"/>
<path d="M200.804 68.3879C200.627 68.5649 200.416 68.919 200.239 68.9079C198.414 68.8083 196.577 68.6866 194.763 68.4875C194.475 68.4543 194.143 68.0339 194.022 67.713C193.955 67.5581 194.254 67.1045 194.486 66.9828C195.748 66.2969 199.421 66.9718 200.582 68.0449C200.649 68.1113 200.693 68.2109 200.815 68.3879H200.804Z" fill="black"/>
<path d="M187.073 71.5635C187.073 72.4817 186.354 73.3336 185.602 73.2119C184.772 73.0792 184.396 72.4928 184.33 71.6741C184.252 70.7116 184.85 69.8707 185.624 69.8486C186.376 69.8265 187.062 70.6341 187.073 71.5635Z" fill="black"/>
<path d="M198.071 73.3004C197.805 72.9574 197.23 72.5038 197.064 71.9285C196.821 71.0766 197.108 70.2468 198.049 69.9371C198.757 69.7047 199.531 70.4571 199.642 71.3975C199.752 72.3489 199.221 73.1676 198.071 73.2893V73.3004Z" fill="black"/>
<mask id="mask0_128_533" style="mask-type:luminance" maskUnits="userSpaceOnUse" x="250" y="57" width="33" height="33">
<path d="M282.442 57.0698H250.501V89.5417H282.442V57.0698Z" fill="white"/>
</mask>
<g mask="url(#mask0_128_533)">
<path d="M262.682 71.5746L268.878 77.8698L272.087 74.6171C272.275 74.429 272.529 74.3183 272.795 74.3183C273.06 74.3183 273.315 74.429 273.503 74.6171L278.459 79.651V64.1619C278.459 63.8964 278.349 63.6308 278.172 63.4428C277.983 63.2547 277.729 63.144 277.463 63.144H255.502C255.237 63.144 254.982 63.2547 254.794 63.4428C254.606 63.6308 254.506 63.8964 254.506 64.1619V78.4562L261.288 71.5635C261.377 71.4639 261.488 71.3975 261.609 71.3422C261.731 71.2869 261.864 71.2648 261.996 71.2648C262.129 71.2648 262.262 71.2869 262.384 71.3422C262.505 71.3975 262.616 71.4639 262.705 71.5635L262.682 71.5746Z" fill="#FAE5EC"/>
<path d="M277.441 62.3916H255.48C254.495 62.3916 253.71 63.1992 253.71 64.1729V82.439C253.71 83.4126 254.484 84.2202 255.48 84.2202H277.441C278.426 84.2202 279.211 83.4126 279.211 82.439V64.1729C279.211 63.1992 278.437 62.3916 277.441 62.3916Z" stroke="white" stroke-width="1.39" stroke-linecap="round" stroke-linejoin="round"/>
<path d="M261.886 71.1206C261.476 71.1206 256.752 75.8005 254.451 78.146C254.451 80.2149 254.728 82.4498 254.86 83.3128H278.415V79.4958C276.866 78.0465 273.702 75.0593 273.458 74.6389C273.215 74.2295 272.463 74.4618 272.12 74.6389L268.812 77.8363C266.676 75.6014 262.306 71.1206 261.886 71.1206Z" fill="white" stroke="black" stroke-width="0.19"/>
<path d="M277.441 63.1548H255.48C254.927 63.1548 254.484 63.6084 254.484 64.1726V82.4388C254.484 83.003 254.927 83.4566 255.48 83.4566H277.441C277.994 83.4566 278.437 83.003 278.437 82.4388V64.1726C278.437 63.6084 277.994 63.1548 277.441 63.1548Z" stroke="black" stroke-width="1.81" stroke-linecap="round" stroke-linejoin="round"/>
<path d="M269.962 71.2757C270.792 71.2757 271.456 70.5898 271.456 69.749C271.456 68.9081 270.781 68.2222 269.962 68.2222C269.144 68.2222 268.469 68.9081 268.469 69.749C268.469 70.5898 269.133 71.2757 269.962 71.2757Z" fill="black"/>
<path d="M268.878 77.8805L272.086 74.6278C272.274 74.4397 272.529 74.3291 272.794 74.3291C273.06 74.3291 273.314 74.4397 273.503 74.6278L278.459 79.6618" stroke="black" stroke-width="1.81" stroke-linecap="round" stroke-linejoin="round"/>
<path d="M254.495 78.4668L261.277 71.5741C261.366 71.4745 261.476 71.4082 261.598 71.3528C261.72 71.2975 261.852 71.2754 261.985 71.2754C262.118 71.2754 262.251 71.2975 262.372 71.3528C262.494 71.4082 262.605 71.4745 262.693 71.5741L274.377 83.4565" stroke="black" stroke-width="1.81" stroke-linecap="round" stroke-linejoin="round"/>
</g>
<path d="M18.2198 233.392L2.7417 180.928H18.6291L25.7984 213.2H26.2077L34.7157 180.928H47.2176L55.7256 213.311H56.135L63.3042 180.928H79.1916L63.7136 233.392H50.0831L41.1658 204.084H40.7565L31.8391 233.392H18.2087H18.2198ZM87.5005 234C84.989 234 82.7652 233.591 80.8401 232.772C78.9261 231.931 77.4214 230.67 76.3261 228.977C75.2308 227.285 74.6887 225.138 74.6887 222.516C74.6887 220.37 75.0538 218.533 75.7951 217.006C76.5253 215.469 77.5542 214.218 78.8708 213.245C80.1874 212.271 81.7141 211.53 83.4511 211.021C85.2103 210.512 87.1021 210.18 89.1379 210.025C91.3395 209.859 93.1097 209.649 94.4374 209.406C95.7871 209.151 96.7607 208.797 97.3582 208.355C97.9556 207.89 98.2543 207.292 98.2543 206.54V206.441C98.2543 205.412 97.856 204.626 97.0705 204.084C96.285 203.542 95.2782 203.265 94.0501 203.265C92.7004 203.265 91.594 203.564 90.7421 204.161C89.9013 204.737 89.4034 205.633 89.2264 206.85H76.2155C76.3815 204.46 77.1449 202.258 78.4946 200.245C79.8555 198.209 81.8469 196.594 84.4579 195.377C87.069 194.149 90.3327 193.529 94.2382 193.529C97.0594 193.529 99.582 193.861 101.817 194.525C104.052 195.178 105.955 196.085 107.526 197.269C109.097 198.43 110.292 199.791 111.11 201.362C111.951 202.911 112.361 204.604 112.361 206.441V233.392H99.1394V227.86H98.8296C98.0441 229.331 97.0927 230.515 95.9642 231.422C94.8578 232.33 93.5855 232.982 92.1472 233.392C90.731 233.801 89.1711 234 87.4562 234H87.5005ZM92.114 225.083C93.1872 225.083 94.194 224.862 95.1344 224.419C96.0859 223.976 96.8714 223.335 97.4688 222.494C98.0663 221.653 98.365 220.635 98.365 219.44V216.166C97.9888 216.32 97.5905 216.464 97.159 216.597C96.7497 216.73 96.3071 216.863 95.8314 216.984C95.3667 217.106 94.8799 217.217 94.3489 217.316C93.8399 217.416 93.2978 217.515 92.7336 217.604C91.6383 217.77 90.7421 218.057 90.0451 218.445C89.3591 218.821 88.8502 219.285 88.5072 219.85C88.1864 220.392 88.0204 221.011 88.0204 221.697C88.0204 222.793 88.4077 223.622 89.1711 224.209C89.9345 224.784 90.9191 225.083 92.114 225.083ZM130.405 180.928V233.392H116.266V180.928H130.405ZM148.871 180.928V233.392H134.731V180.928H148.871Z" fill="black"/>
<path d="M166.307 233.391L150.829 180.927H166.705L173.875 213.2H174.284L182.792 180.927H195.294L203.802 213.311H204.211L211.381 180.927H227.257L211.779 233.391H198.148L189.231 204.084H188.822L179.904 233.391H166.274H166.307ZM229.204 233.391V194.038H243.343V233.391H229.204ZM236.274 189.944C234.36 189.944 232.722 189.314 231.35 188.052C229.979 186.791 229.304 185.264 229.304 183.494C229.304 181.724 229.99 180.197 231.35 178.936C232.711 177.675 234.36 177.044 236.274 177.044C238.188 177.044 239.847 177.675 241.186 178.936C242.558 180.197 243.233 181.724 243.233 183.494C243.233 185.264 242.547 186.791 241.186 188.052C239.836 189.314 238.199 189.944 236.274 189.944ZM248.068 233.391V225.602L265.283 205.002V204.803H248.687V194.049H281.989V202.656L266.312 222.438V222.637H282.608V233.402H248.079L248.068 233.391ZM298.507 234C295.995 234 293.772 233.59 291.847 232.772C289.933 231.931 288.428 230.67 287.333 228.977C286.237 227.284 285.695 225.138 285.695 222.516C285.695 220.369 286.06 218.533 286.79 217.006C287.521 215.468 288.55 214.218 289.866 213.244C291.183 212.271 292.71 211.529 294.447 211.02C296.206 210.512 298.098 210.18 300.133 210.025C302.335 209.859 304.105 209.649 305.433 209.405C306.783 209.151 307.756 208.797 308.354 208.354C308.951 207.889 309.25 207.292 309.25 206.54V206.44C309.25 205.411 308.863 204.626 308.066 204.084C307.28 203.541 306.274 203.265 305.046 203.265C303.696 203.265 302.6 203.564 301.738 204.161C300.897 204.736 300.399 205.632 300.222 206.849H287.211C287.377 204.46 288.14 202.258 289.49 200.244C290.851 198.209 292.842 196.593 295.453 195.376C298.064 194.148 301.328 193.529 305.234 193.529C308.055 193.529 310.577 193.861 312.812 194.525C315.047 195.177 316.95 196.085 318.521 197.268C320.092 198.43 321.287 199.791 322.106 201.362C322.947 202.911 323.356 204.604 323.356 206.44V233.391H310.135V227.859H309.825C309.04 229.331 308.088 230.515 306.96 231.422C305.853 232.329 304.581 232.982 303.143 233.391C301.726 233.801 300.166 234 298.452 234H298.507ZM303.109 225.082C304.183 225.082 305.189 224.861 306.13 224.419C307.081 223.976 307.867 223.334 308.464 222.493C309.062 221.653 309.36 220.635 309.36 219.44V216.165C308.984 216.32 308.586 216.464 308.154 216.597C307.745 216.729 307.303 216.862 306.827 216.984C306.362 217.105 305.875 217.216 305.344 217.316C304.835 217.415 304.293 217.515 303.729 217.603C302.634 217.769 301.738 218.057 301.04 218.444C300.355 218.82 299.846 219.285 299.503 219.849C299.182 220.391 299.016 221.011 299.016 221.697C299.016 222.792 299.403 223.622 300.166 224.208C300.93 224.784 301.915 225.082 303.109 225.082ZM327.272 233.391V194.038H341.002V201.517H341.412C342.131 198.751 343.271 196.726 344.819 195.443C346.39 194.159 348.227 193.518 350.329 193.518C350.949 193.518 351.546 193.573 352.144 193.673C352.763 193.761 353.35 193.883 353.914 194.06V206.13C353.217 205.887 352.354 205.71 351.325 205.588C350.296 205.467 349.422 205.411 348.692 205.411C347.309 205.411 346.059 205.732 344.952 206.363C343.857 206.982 342.994 207.845 342.363 208.974C341.733 210.08 341.412 211.386 341.412 212.89V233.38H327.272V233.391ZM367.655 233.9C364.856 233.9 362.278 233.17 359.921 231.698C357.576 230.227 355.706 228.003 354.29 225.016C352.885 222.029 352.188 218.267 352.188 213.72C352.188 209.173 352.918 205.112 354.389 202.147C355.872 199.171 357.786 197.003 360.132 195.609C362.488 194.226 364.966 193.529 367.555 193.529C369.502 193.529 371.206 193.872 372.678 194.558C374.149 195.222 375.377 196.118 376.362 197.246C377.347 198.353 378.099 199.581 378.619 200.908H378.829V180.927H392.968V233.391H378.929V226.93H378.619C378.077 228.258 377.291 229.453 376.262 230.515C375.256 231.555 374.027 232.384 372.578 233.004C371.14 233.601 369.502 233.9 367.655 233.9ZM372.877 223.036C374.171 223.036 375.289 222.659 376.207 221.907C377.147 221.133 377.867 220.059 378.364 218.677C378.873 217.271 379.128 215.623 379.128 213.709C379.128 211.795 378.873 210.102 378.364 208.719C377.867 207.325 377.147 206.252 376.207 205.522C375.289 204.769 374.171 204.393 372.877 204.393C371.582 204.393 370.465 204.769 369.547 205.522C368.64 206.252 367.943 207.325 367.445 208.719C366.969 210.102 366.725 211.773 366.725 213.709C366.725 215.645 366.969 217.327 367.445 218.732C367.943 220.115 368.64 221.177 369.547 221.929C370.465 222.659 371.582 223.025 372.877 223.025V223.036Z" fill="#FF165D"/>
</svg>
